<svg width="40" height="40" viewBox="0 0 40 40" fill="none" xmlns="http://www.w3.org/2000/svg">
<path d="M0 8C0 3.58172 3.58172 0 8 0H32C36.4183 0 40 3.58172 40 8V32C40 36.4183 36.4183 40 32 40H8C3.58172 40 0 36.4183 0 32V8Z" fill="#A5A6F6"/>
<path d="M25 27.2006C24.6831 21.0139 15.3169 21.0139 15 27.2006" stroke="white" stroke-width="1.5" stroke-linecap="round" stroke-linejoin="round"/>
<circle cx="19.5" cy="17.5" r="2.5" stroke="white" stroke-width="1.5" stroke-linecap="round" stroke-linejoin="round"/>
<path d="M17.7128 11.6403C18.2941 11.1449 18.5847 10.8972 18.8886 10.752C19.5915 10.416 20.4085 10.416 21.1114 10.752C21.4153 10.8972 21.7059 11.1449 22.2872 11.6403C22.8856 12.1502 23.4938 12.4076 24.2939 12.4715C25.0552 12.5322 25.4359 12.5626 25.7535 12.6748C26.488 12.9342 27.0658 13.512 27.3252 14.2465C27.4374 14.5641 27.4678 14.9448 27.5285 15.7061C27.5924 16.5062 27.8498 17.1144 28.3597 17.7128C28.8551 18.2941 29.1028 18.5847 29.248 18.8886C29.584 19.5915 29.584 20.4085 29.248 21.1114C29.1028 21.4153 28.8551 21.7059 28.3597 22.2872C27.8391 22.8981 27.5911 23.5102 27.5285 24.2939C27.4678 25.0552 27.4374 25.4359 27.3252 25.7535C27.0658 26.488 26.488 27.0658 25.7535 27.3252C25.4359 27.4374 25.0552 27.4678 24.2939 27.5285C23.4938 27.5924 22.8856 27.8498 22.2872 28.3597C21.7059 28.8551 21.4153 29.1028 21.1114 29.248C20.4085 29.584 19.5915 29.584 18.8886 29.248C18.5847 29.1028 18.2941 28.8551 17.7128 28.3597C17.1019 27.8391 16.4898 27.5911 15.7061 27.5285C14.9448 27.4678 14.5641 27.4374 14.2465 27.3252C13.512 27.0658 12.9342 26.488 12.6748 25.7535C12.5626 25.4359 12.5322 25.0552 12.4715 24.2939C12.4076 23.4938 12.1502 22.8856 11.6403 22.2872C11.1449 21.7059 10.8972 21.4153 10.752 21.1114C10.416 20.4085 10.416 19.5915 10.752 18.8886C10.8972 18.5847 11.1449 18.2941 11.6403 17.7128C12.1609 17.1019 12.4089 16.4898 12.4715 15.7061C12.5322 14.9448 12.5626 14.5641 12.6748 14.2465C12.9342 13.512 13.512 12.9342 14.2465 12.6748C14.5641 12.5626 14.9448 12.5322 15.7061 12.4715C16.5062 12.4076 17.1144 12.1502 17.7128 11.6403Z" stroke="white" stroke-width="1.5" stroke-linecap="round" stroke-linejoin="round"/>
</svg>
