<svg width="40" height="40" viewBox="0 0 40 40" fill="none" xmlns="http://www.w3.org/2000/svg">
<path d="M0 8C0 3.58172 3.58172 0 8 0H32C36.4183 0 40 3.58172 40 8V32C40 36.4183 36.4183 40 32 40H8C3.58172 40 0 36.4183 0 32V8Z" fill="#7FAFE8"/>
<path d="M17.6992 18.8225L19.0778 20.398C19.2043 20.5425 19.4322 20.5319 19.5446 20.3762L22.3441 16.5" stroke="white" stroke-width="1.5" stroke-linecap="round" stroke-linejoin="round"/>
<path d="M11.4645 24.8284C10 23.6569 10 22.7712 10 19C10 15.2288 10 13.3431 11.4645 12.1716C12.9289 11 15.286 11 20 11C24.714 11 27.0711 11 28.5355 12.1716C30 13.3431 30 15.2288 30 19C30 22.7712 30 23.6569 28.5355 24.8284C27.0711 26 24.714 26 20 26C17.4905 26 16.1997 27.7375 14 29V25.7883C12.9061 25.6255 12.101 25.3376 11.4645 24.8284Z" stroke="white" stroke-width="1.5" stroke-linecap="round" stroke-linejoin="round"/>
</svg>
